<?xml version="1.0" encoding="utf-8"?>
<!-- Generator: Adobe Illustrator 22.0.1, SVG Export Plug-In . SVG Version: 6.00 Build 0)  -->
<svg version="1.1" id="Calque_1" xmlns="http://www.w3.org/2000/svg" xmlns:xlink="http://www.w3.org/1999/xlink" x="0px" y="0px"
	 viewBox="0 0 432 432" style="enable-background:new 0 0 432 432;" xml:space="preserve">
<style type="text/css">
	.st0{fill:#B3A6AD;}
	.st1{fill:#B6B155;}
	.st2{fill:#990033;}
	.st3{fill:#660A1E;}
	.st4{fill:#A7A6AA;}
	.st5{fill:#EF798A;}
	.st6{fill:#FFB2B2;}
	.st7{fill:#A70808;}
	.st8{fill:#DF4646;}
	.st9{fill:#FF7878;}
	.st10{fill:#F2A297;}
	.st11{fill:#BA1717;}
	.st12{fill:#543A3C;}
	.st13{fill:#CA1542;}
	.st14{fill:#E74C6E;}
	.st15{fill:#006837;}
	.st16{fill:#004924;}
	.st17{fill:#D33757;}
	.st18{fill:#E06581;}
	.st19{fill:#014724;}
	.st20{fill:#E14666;}
	.st21{fill:#ABDFD3;}
	.st22{fill:#C5EFE4;}
	.st23{fill:#DC4160;}
	.st24{fill:#A888AD;}
	.st25{fill:#B99BBF;}
	.st26{fill:#F8A362;}
	.st27{fill:#F9B587;}
	.st28{fill:#F2F2F2;}
	.st29{fill:#FDFFFE;}
	.st30{fill:#F2D668;}
	.st31{fill:#F9E4A5;}
	.st32{fill:#F5A6DF;}
	.st33{fill:#F4CEEB;}
	.st34{fill:#CCCCCC;}
	.st35{fill:#FBB03B;}
	.st36{fill:#FFFFFF;}
	.st37{fill:#ECCDD2;}
	.st38{fill:#8AD7AB;}
	.st39{fill:#8FC8E2;}
	.st40{fill:#D3CE94;}
	.st41{fill:#F9CFCF;}
	.st42{fill:#EDE9C3;}
	.st43{fill:#9BD6EA;}
	.st44{fill:#F8D9C4;}
	.st45{fill:#EB678B;}
	.st46{fill:#A5394C;}
	.st47{fill:#DD726C;}
	.st48{fill:#E5847A;}
	.st49{fill:#EF8A7F;}
	.st50{fill:#3CBC91;}
	.st51{fill:#8CC63F;}
	.st52{fill:#B78D5C;}
	.st53{fill:#2A2A2B;}
	.st54{fill:#EBCEC6;}
	.st55{fill:#F49090;}
	.st56{fill:#B3D8E8;}
	.st57{fill:#EFE6E4;}
	.st58{fill:#FBD8E3;}
	.st59{fill:#E48397;}
	.st60{fill:#B2E6F9;}
	.st61{fill:#42210B;}
	.st62{fill:#E0E0E0;}
	.st63{fill:#9D6D47;}
	.st64{fill:#EFD1B4;}
	.st65{fill:#0071BC;}
	.st66{fill:#679CBA;}
	.st67{fill:#DBDCDD;}
	.st68{fill:#DDB28E;}
	.st69{fill:#C69C6D;}
	.st70{fill:#603813;}
	.st71{fill:#8C6239;}
	.st72{fill:#E9EAE4;}
	.st73{fill:#F7931E;}
	.st74{fill:#754C24;}
	.st75{fill:#A67C52;}
	.st76{fill:#9E1E28;}
	.st77{fill:#F15A24;}
	.st78{fill:#E04819;}
	.st79{fill:#009245;}
	.st80{fill:#00552B;}
	.st81{fill:#84821B;}
	.st82{fill:#CD271F;}
	.st83{fill:#BB8130;}
	.st84{fill:#BBBABF;}
	.st85{fill:#E0E0E2;}
	.st86{fill:#C79359;}
	.st87{fill:#BA844F;}
	.st88{fill:#29ABE2;}
	.st89{fill:#EEB752;}
	.st90{fill:#A8B0B2;}
	.st91{fill:#035684;}
	.st92{fill:#EFBF73;}
	.st93{fill:#D3A272;}
	.st94{fill:#C3C8C9;}
	.st95{fill:#EBDCC9;}
	.st96{fill:#EAD696;}
	.st97{fill:#E57ACC;}
	.st98{fill:#8D5F96;}
	.st99{fill:#FFD9E4;}
	.st100{fill:#60BA84;}
	.st101{fill:#CCEDE5;}
	.st102{fill:#E8E8E8;}
	.st103{fill:#F9D2D2;}
	.st104{fill:#B9B9BA;}
	.st105{fill:#939393;}
	.st106{fill:#62612A;}
	.st107{fill:#79484E;}
	.st108{fill:#C2BE5C;}
	.st109{fill:#F1C3A2;}
	.st110{fill:#B2625C;}
	.st111{fill:#E1AE9D;}
	.st112{fill:#7597A0;}
	.st113{fill:#F2DBD5;}
	.st114{fill:#B27C62;}
	.st115{fill:#E6E6E6;}
	.st116{fill:#AF8864;}
	.st117{fill:#F1E9DF;}
	.st118{fill:#9E6A56;}
	.st119{fill:#2E3192;}
	.st120{fill:#EAEAEA;}
	.st121{fill:#1B1464;}
	.st122{fill:#EAE5E6;}
	.st123{fill:#7F9BEA;}
	.st124{fill:#EEBCC5;}
	.st125{fill:#DB8E98;}
	.st126{fill:#B58187;}
	.st127{fill:#80424C;}
	.st128{fill:#F3EED0;}
	.st129{fill:#CCD8B0;}
	.st130{fill:#46653B;}
	.st131{fill:#345129;}
	.st132{fill:#C9A6AC;}
	.st133{fill:#D6B6BA;}
	.st134{fill:#DE7139;}
	.st135{fill:#F2CB56;}
	.st136{fill:#DE3A55;}
	.st137{fill:#CD9586;}
	.st138{fill:#B47468;}
	.st139{fill:#F5DCD8;}
	.st140{fill:#C4BCBF;}
	.st141{fill:#E0B182;}
	.st142{fill:#9B6B61;}
	.st143{fill:#DBB89B;}
	.st144{fill:#DED2D3;}
	.st145{fill:#7D6364;}
	.st146{fill:#F1A3A1;}
	.st147{fill:#B3B3B3;}
	.st148{fill:#F9CEBE;}
	.st149{fill:#142738;}
	.st150{fill:#911928;}
	.st151{fill:#A32F4E;}
	.st152{fill:#7A0118;}
	.st153{fill:#DAE576;}
	.st154{fill:#E87F38;}
	.st155{fill:#F47621;}
	.st156{fill:#BC5B1B;}
	.st157{fill:#E6EF6A;}
	.st158{fill:#7C0101;}
	.st159{fill:#6DA84A;}
	.st160{fill:#83AF6E;}
	.st161{fill:#39B54A;}
	.st162{fill:#812791;}
	.st163{fill:#FC540D;}
	.st164{fill:#DD4410;}
	.st165{fill:#D3CE6A;}
	.st166{fill:#F2C8AD;}
	.st167{fill:#EFB58E;}
	.st168{fill:#F27622;}
	.st169{fill:#8DA34F;}
	.st170{fill:#ACBF77;}
	.st171{fill:#D6C188;}
	.st172{fill:#E5CED4;}
	.st173{fill:#15104F;}
	.st174{fill:#E5E3E3;}
</style>
<g>
	<path class="st7" d="M217.1,111.8c2.1-3.7,4.4-7,6.9-10.2c7.8-10,17.4-17.9,28.6-23.8c4.1-2.2,8.2-4.3,12.5-6.3
		c6.9-3.2,14.1-5.2,21.6-6.1c18-2.4,34.1,2.3,48.2,13.8c5.6,4.6,10.3,10.1,14.1,16.2c5.3,8.4,9.5,17.4,12.2,27
		c1.8,6.6,2.9,13.3,3.2,20.1c0.2,5.7-0.3,11.4-1.1,17.1c-1.3,9.3-3.2,18.4-6.1,27.3c-4.3,13.2-10.1,25.7-17,37.7
		c-6.6,11.3-14,22-21.8,32.5c-10.7,14.5-22.3,28.3-34.3,41.7c-7.4,8.2-14.6,16.5-22.1,24.7c-9.5,10.4-19.2,20.5-29.2,30.4
		c-3.2,3.1-6.2,6.4-9.4,9.6c-1.1,1.1-2.4,2.1-3.6,3.1c-0.8,0.6-1.7,0.8-2.6,0.5c-1-0.3-2-0.7-2.9-1.3c-2.3-1.7-4.7-3.3-6.9-5.2
		c-6.2-5.2-12.1-10.9-17.9-16.6c-13.9-13.8-27.8-27.6-41.2-42c-9.7-10.4-19.1-21.2-27.7-32.5c-12.1-15.9-23.2-32.6-32.7-50.2
		c-5.6-10.3-10.5-21-14.3-32.2c-2.7-8-4.5-16.1-5.4-24.5c-1.5-14.1-0.5-28,3.6-41.6c4-13.1,10.7-24.6,20.3-34.3
		c4.6-4.7,9.9-8.6,15.7-11.9c5.2-2.9,10.8-4.8,16.6-5.9c6-1.1,12-1.7,18.1-1.5c3.8,0.1,7.5,0.5,11.3,0.8c3.9,0.3,7.8,0.9,11.7,1.7
		c13.6,2.9,25.2,9.3,34.8,19.3c5.8,6.1,11,12.7,15.5,19.9C216.2,110.1,216.6,110.9,217.1,111.8z M174.3,193.3
		c-0.1,0-0.1-0.1-0.2-0.1c-0.4,0.1-0.7,0.3-1.1,0.4c-5.2,2-10.6,2.8-16.2,2.4c-4.8-0.4-9.5-1.4-14.1-3c-0.2-0.1-0.5-0.1-0.9-0.2
		c0.3,0.3,0.4,0.5,0.5,0.7c1.7,1.9,3.1,3.9,4.1,6.2c0.9,2,1.7,4,2.5,6c0.6,1.5,1.1,3.1,1.7,4.7c0.2,0,0.3,0.1,0.4,0
		c1.3,0,2.4,0.5,3.1,1.5c1.6,2,2,4.3,1.1,6.7c-1,2.7-3.8,3.4-5.9,1.4c-2.6-2.4-3-6-0.7-8.8c-1.6-3.6-3-7.4-4.8-11
		c-2.5-5.1-6.6-8.9-11.4-11.8c-5.7-3.5-11.1-7.3-15.9-11.9c-0.2-0.2-0.4-0.3-0.7-0.6c0,0.3,0,0.4,0.1,0.6c1.1,3.1,2,6.2,2.6,9.4
		c0,0.3,0.2,0.6,0.3,0.8c1,1.1,2,2.2,3,3.3c3.7,3.8,6.2,8.2,7.7,13.3c1.1,3.5,1.6,7.1,1.1,10.7c-0.7,5.5-3.2,10.2-7,14.2
		c-0.9,0.9-1.9,1.7-3,2.3c-1.7,1-2.9,0.7-4-1c-1.1-1.7-2.2-3.5-3.3-5.2c-1.3-2.1-2.5-4.2-3.6-6.4c-1.6-3.1-2.4-6.4-2.4-9.9
		c0-3.6,0.8-7,2.4-10.2c0.9-1.9,1.9-3.7,2.8-5.6c0.9-1.9,1.8-3.8,2.3-5.8c0.2-0.8,0.2-1.5,0-2.3c-1.2-5-3-9.8-5.2-14.5
		c-0.2-0.4-0.4-0.8-0.7-1.1c-4.3-5.3-7.9-10.9-11-17c-0.1-0.2-0.3-0.4-0.4-0.5c-0.2,1.5-0.1,3-0.2,4.4c-0.1,1.5-0.2,2.9-0.4,4.3
		c-0.2,1.4-0.1,2.7,0.1,4c0.6,4.2,2.8,7.9,4.5,11.5c0.9,0.3,1.7,0.4,2.4,0.7c2,1.1,3,2.9,3.2,5.1c0.1,1.2-0.4,2.3-1.5,3
		c-1.1,0.6-2.1,0.3-3.1-0.3c-2.5-1.6-3.7-5-2.6-7.7c-0.6-1-1.1-2.1-1.7-3.1c-0.5-1-1.1-2.1-1.5-3.2c-0.5-1.1-0.8-2.2-1.3-3.4
		c-0.7,1.8-1.3,3.4-2,5c-0.7,1.6-1.4,3.2-2.1,4.8c1.3,1.4,1.6,2.9,1.2,4.7c-0.4,1.8-1.3,3.3-2.9,4.2c-2.2,1.2-4.6-0.1-4.8-2.6
		c-0.1-1.6,0.2-3.1,1-4.5c0.6-1.1,1.5-2.1,2.8-2.5c0.2-0.1,0.4-0.3,0.5-0.6c0.8-1.9,1.6-3.8,2.4-5.7c1.3-3.3,2.4-6.8,2.8-10.4
		c0.4-3.1,0.4-6.2,0.2-9.2c-0.3-4-1-8-2-11.8c-1.6-5.7-2.8-11.4-3.2-17.2c-0.5-7.6,0-15,2.2-22.4c0.1-0.3,0.2-0.7,0.2-1
		c-0.3,0.1-0.5,0.3-0.7,0.5c-4,5.2-7.4,10.8-10,16.8c-4.5,10.3-6.5,21.1-7,32.2c-0.2,4.9-0.1,9.9,0.4,14.8c0.8,7.9,2.5,15.6,5,23.2
		c3.5,10.6,8.1,20.8,13.4,30.6c10,18.6,21.7,36.1,34.6,52.8c9.1,11.8,19,23,29.3,33.8c12.9,13.5,26,26.7,39.3,39.8
		c5,4.9,10.1,9.8,15.5,14.3c0.3,0.2,0.6,0.5,0.9,0.7c0.2-0.3,0.4-0.4,0.5-0.6c1.5-2.7,2.8-5.4,3.6-8.4c0.5-2,0.4-3.9-0.4-5.7
		c-0.4-0.9-0.9-1.8-1.3-2.7c-0.2-0.5-0.6-0.8-1.1-0.8c-0.4,0-0.8-0.2-1.2-0.4c-2.2-1.1-3.4-3-3.5-5.4c-0.2-2.9,2.5-4.3,4.8-3.1
		c0.5,0.2,0.9,0.6,1.3,0.9c2.1,2,2.6,4.2,1.4,6.9c1.3,2.2,2.5,4.4,2.8,7c0.3,2.7-0.7,5.1-1.6,7.5c0.3-0.2,0.5-0.5,0.7-0.8
		c2.4-3,4-6.4,5.3-9.9c3.1-8.5,4.3-17.3,4-26.3c0-0.4-0.2-0.8-0.4-1.2c-1.3-2-3-3.6-4.9-4.9c-0.2-0.2-0.5-0.3-0.7-0.4
		c-0.1,0.1-0.3,0.2-0.4,0.3c-1.7,1.4-3.3,2.9-5,4.3c-2,1.7-4,3.1-6.4,4.1c-2.5,1-5,1.2-7.6,0.4c-5.1-1.6-9-4.8-12.2-8.9
		c-1.1-1.3-0.9-2.4,0.4-3.5c1-0.8,2-1.4,3.1-2c2.8-1.4,5.8-2.4,8.8-3.1c3-0.7,6.1-1,9.2-0.3c3.5,0.8,6.8,2.2,9.9,4.1
		c0.2,0.1,0.5,0.3,0.7,0.5c1.5,1.3,3,2.7,4.5,4c0.2,0.2,0.3,0.3,0.6,0.6c0-0.4,0-0.6,0-0.8c-0.1-1.2-0.3-2.3-0.4-3.5
		c-1.3-9-4.2-17.6-8.8-25.5c-2.2-3.8-4.8-7.2-8-10.1c-3.2-2.9-6.7-5.2-10.9-6.5c-4.3-1.3-8.6-1.7-12.9-0.3
		c-5.3,1.6-9.1,4.9-10.8,10.2c-1.3,3.9-0.7,7.6,1.8,10.9c0.2,0.2,0.4,0.4,0.6,0.5c0-0.4-0.1-0.7-0.1-1c-0.2-1,0.2-1.9,1-2.3
		c0.8-0.4,1.7-0.3,2.4,0.5c0.3,0.4,0.6,0.9,0.9,1.3c0.1,0.2,0.3,0.5,0.4,0.6c0.6-0.9,1.2-1.9,1.9-2.7c0.8-1,1.9-1.2,2.9-0.8
		c0.9,0.4,1.5,1.4,1.3,2.7c-0.2,1-0.5,1.9-0.8,2.8c-0.2,0.7-0.6,1.3-1,2c0.5,0.3,1,0.5,1.5,0.7c1.2,0.6,2.4,1.3,3.3,2.3
		c0.5,0.5,0.9,1.1,1.2,1.8c0.7,1.7-0.3,3.3-2,3.6c-1.3,0.3-2.4-0.1-3.5-0.7c-0.3-0.2-0.6-0.3-1-0.6c-0.1,0.4-0.1,0.7-0.2,1
		c-0.3,1.5-0.8,3-1.8,4.1c-1,1.1-2.4,1.3-3.6,0.6c-0.9-0.6-1.3-1.5-1.4-2.5c0-0.8,0.1-1.7,0.1-2.5c0-0.3,0.1-0.7,0.1-1
		c-0.7,0.1-1.3,0.2-1.9,0.2c-0.8,0-1.6-0.1-2.3-0.3c-1-0.3-1.7-1-1.8-2.1c-0.1-1.1,0.4-1.9,1.4-2.5c0.5-0.3,1-0.4,1.5-0.6
		c0.2-0.1,0.5-0.2,0.8-0.3c-0.2-0.2-0.4-0.3-0.5-0.4c-3.7-2.9-5.6-6.8-5.6-11.4c0-6.1,2.5-11.1,7.2-14.8c4.9-3.9,10.6-5.4,16.8-4.8
		c5.3,0.5,10.2,2.3,14.6,5.4c0.2,0.1,0.4,0.2,0.7,0.4c-0.5-1.5-0.9-2.9-1.3-4.3c-0.6-2.2-1.1-4.3-1.6-6.5c-0.1-0.4-0.2-0.8-0.6-1
		c-2.2-1.4-3.4-4.9-2.5-7.4c0.8-2.4,3.2-2.9,5-1.1c1.5,1.6,2,3.4,1.7,5.6c-0.2,1.1-0.8,2-1.5,2.7c0.8,2.8,1.6,5.5,2.4,8.3
		c0.7,2.5,1.7,5,3,7.3c0.2,0.4,0.5,0.8,0.8,1.1c2.3,2.3,4.2,4.9,6,7.6c0.1,0.1,0.3,0.3,0.4,0.4c0-1.3-0.1-2.6-0.1-3.8
		c0-1.2,0.1-2.5,0.2-3.7c0.2-2,0.5-3.9,0.7-5.9c0-0.3,0-0.7-0.1-0.9c-0.8-1.4-1.3-3-1.8-4.6c-1.3-4.9-0.3-9.3,2.9-13.3
		c0.4-0.4,0.7-0.9,1.1-1.3c2.5-2.6,4.9-5.2,7.4-7.8c0.1-0.1,0.2-0.1,0.2-0.2c1.2-1.1,2.5-1.1,3.7,0.1c0.6,0.6,1.2,1.3,1.6,2.1
		c1.4,2.7,2.2,5.5,2,8.6c-0.3,4.1-2,7.6-5,10.4c-2.5,2.5-5.1,4.7-8.1,6.5c-0.7,0.4-1,1-1.2,1.8c-0.7,4.7-1,9.4-0.4,14.1
		c0.1,1,0.3,2.1,0.5,3.3c0.2-0.3,0.3-0.4,0.3-0.5c0.9-2.3,2.3-4.4,3.9-6.3c1.2-1.4,2.4-2.8,3.6-4.2c0.4-0.4,0.5-0.8,0.5-1.4
		c-0.3-2.9,2.2-6.2,5.1-6.8c1.9-0.4,3.5,0.6,4.1,2.3c0.3,0.9,0.4,1.8,0.1,2.7c-0.6,2.3-1.6,4.2-3.8,5.3c-0.8,0.4-1.7,0.7-2.7,0.3
		c-0.5-0.2-0.9-0.4-1.4-0.7c-2,2.6-4.4,4.9-5.9,7.9c-0.7,1.3-1.2,2.6-1.6,4c-0.4,1.4-0.6,2.8,0,4.2c4.2,10.9,5.6,22.3,4.9,33.9
		c-0.4,5.9-1.4,11.7-3.2,17.3c-0.1,0.3-0.2,0.7-0.3,1c0.4-0.2,0.6-0.5,0.8-0.8c0.8-1.3,1.6-2.7,2.4-4c4.8-8.6,8.1-17.8,10.2-27.3
		c1.8-8,3.3-16.1,4.3-24.3c0.9-6.6,1.5-13.2,1.8-19.8c0.5-12.4-0.1-24.7-2.3-36.9c-1.6-8.9-4.2-17.5-8.1-25.7
		c-2.5-5.2-5.5-10.2-9.4-14.5c-4-4.4-8.6-7.7-14.4-9.5c-4.5-1.4-9-1.8-13.7-0.9c-2.1,0.4-2.8,1.9-3.7,3.5c-0.5,3.2-0.2,6.2,1.8,8.8
		c1.1,1.5,2.4,2.7,4,3.6c3,1.8,6.1,3.4,9.2,5.2c0.9-0.9,2-0.9,3.1-1c2.6-0.1,5,1.6,5.7,4.1c0.6,1.8-0.2,3.5-2,4.1
		c-1.2,0.4-2.4,0.4-3.5-0.2c-2.1-1-3.7-2.5-4.2-4.9c-0.2-0.1-0.3-0.2-0.5-0.3c-1.8-0.9-3.6-1.6-5.4-2.6c-1.8-1-3.6-2-5.2-3.2
		c-2.3-1.7-4.1-3.8-4.9-6.6c0-0.1-0.1-0.2-0.3-0.5c-1.3,4.7-0.9,9.2-0.5,13.7c0.8,0.4,1.5,0.6,2,1.1c2.5,1.9,2.3,7.2,0.1,9
		c-1.6,1.3-3.4,1.2-4.6-0.5c-1.8-2.3-1.9-5.6-0.3-8c0.3-0.4,0.3-0.7,0.3-1.2c-0.2-2.2-0.5-4.4-0.5-6.7c-0.1-5.1,0.9-9.9,3.1-14.6
		c0.1-0.2,0.1-0.3,0.2-0.6c-0.2,0.1-0.3,0.1-0.4,0.2c-6.7,3.6-11.5,9-14.8,15.9c-2.3,4.8-3.4,9.9-3.6,15.2c0,0.9-0.2,1.8-0.1,2.8
		c0.2,3.1,0.8,6,1.8,8.9c2.2,6,6,10.6,11.9,13.5c2.5,1.2,5.1,1.9,7.8,1.7c3.8-0.2,6.4-2.1,8.2-5.5c-0.4,0.1-0.8,0.2-1.1,0.3
		c-0.5,0.1-1,0.2-1.5,0.1c-1.8-0.1-2.7-1.8-1.7-3.3c0.5-0.8,1.3-1.4,1.9-2.1c0.2-0.2,0.4-0.4,0.7-0.6c-1-0.4-1.9-0.8-2.8-1.2
		c-0.8-0.4-1.5-0.9-2-1.7c-1-1.6-0.4-3.4,1.4-3.9c0.7-0.2,1.4-0.2,2.1-0.1c0.9,0.1,1.7,0.4,2.6,0.7c0.3,0.1,0.6,0.2,1,0.3
		c-0.1-0.6-0.2-1.1-0.4-1.6c-0.1-0.5-0.3-1-0.3-1.5c0-0.8-0.1-1.6,0.1-2.3c0.4-1.4,1.9-1.8,2.9-0.9c0.6,0.5,1.1,1.2,1.4,2
		c0.4,1,0.6,2.2,0.9,3.3c0.1,0.4,0.2,0.9,0.3,1.4c0.4-0.3,0.7-0.6,1-0.8c1.2-0.8,2.3-1.6,3.5-2.3c0.5-0.3,1-0.5,1.6-0.5
		c1.4-0.2,2.5,1,2,2.3c-0.3,0.7-0.7,1.5-1.3,2.1c-0.9,0.9-1.9,1.6-2.9,2.4c-0.2,0.2-0.5,0.4-0.8,0.6c0.4,0.3,0.7,0.4,1.1,0.7
		c1.1,0.8,2.1,1.7,2.6,3c0.4,1.1,0.3,2.2-0.6,3.1c-0.9,0.9-2,0.9-3.1,0.4c-0.8-0.4-1.5-1-2.2-1.5c-0.4-0.3-0.7-0.7-1.1-1.1
		c-0.1,0.4-0.2,0.6-0.3,0.8c-0.8,2.9-2.2,5.4-4.2,7.5c-1.3,1.4-2.8,2.4-4.6,3.1c-4.1,1.5-8.2,1.4-12.2-0.1
		c-5.5-2.1-9.9-5.5-13.2-10.5c-0.2-0.3-0.4-0.6-0.6-0.9c-0.1,0.5-0.1,0.9,0,1.3c0.1,1.1,0.3,2.3,0.3,3.4c0,2.6,0.8,5.1,2.1,7.3
		c1,1.7,2.2,3.4,3.4,5.1c1.2-0.3,2.3-0.2,3.4,0.5c2.3,1.5,2.8,3.4,2.4,5.6c-0.3,1.9-2.1,3-3.8,2.5c-2.1-0.7-4.1-3.8-3.8-6
		c0-0.1,0-0.2,0.1-0.3c0.3-0.6,0-1.1-0.3-1.6c-1.2-1.8-2.4-3.7-3.6-5.5c0-0.1-0.2-0.1-0.2-0.1c-0.6,2.6-1.2,5.3-1.8,7.9
		c-1.3,5-3.6,9.6-6.2,14.1c-1.5,2.6-3,5.2-4.4,7.8c-1.1,2.1-2,4.3-2.6,6.6c-0.4,1.8-0.7,3.6-0.8,5.5c2.3,0.4,3.3,2.1,3.9,4.1
		c0,0,0,0.1,0,0.1c0.6,2.2,0.2,4.2-1.3,5.9c-1.3,1.6-4.3,2.4-6-0.2c-1.9-2.8-1.3-6.2,0.2-8.3c0.3-0.5,0.5-1,0.6-1.5
		c0.2-5.1,1.5-9.8,4-14.2c0.8-1.4,1.6-2.8,2.3-4.2c1.5-2.7,3.1-5.3,4.4-8c3.9-7.9,5.6-16.3,5.2-25.2c0-0.3-0.1-0.6-0.1-0.8
		c-0.2,0.1-0.3,0.3-0.3,0.4c-1.5,4.1-3.3,7.9-5.8,11.4c-0.2,0.3-0.3,0.7-0.4,1.1c-0.6,3.3-1.5,6.4-2.9,9.4c-0.9,2.2-2.1,4.2-3.7,6
		c-3,3.4-6.5,5.9-11,6.8c-4.5,0.9-10.4-1.1-12.9-6.1c-0.9-1.8-1.5-3.7-1.8-5.7c-0.4-2.8,0.4-4.4,3-5.6c3.4-1.6,6.9-3.2,10.3-4.8
		c3-1.4,6.1-2.3,9.4-2.5c1.9-0.2,3.9-0.4,5.8-0.6c1.1-0.1,1.8-0.6,2.4-1.6c3.4-5.4,5.5-11.3,6.6-17.6c0.2-1.1,0.1-2.1-0.1-3.2
		c-0.3-1.5-0.5-3.1-0.6-4.6c-0.3-5,0.5-9.8,2-14.6C173.2,196.4,173.7,194.8,174.3,193.3z M260.8,80.1c0.2,0,0.5,0,0.7,0
		c2.8-0.1,5.7-0.1,8.5,0.4c5.2,0.8,9.7,2.9,13.4,6.7c1.1,1.1,2.2,1.4,3.5,1.2c0.7-0.1,1.3-0.2,2-0.4c1.8-0.6,3.5-1.2,5.3-1.9
		c1-0.4,2-0.7,2.9-1.1c0-0.6-0.1-1.1-0.1-1.6c0.2-2.8,4-5.3,6.7-4.5c1.9,0.6,2.7,2.3,1.8,4.1c-0.1,0.2-0.2,0.5-0.4,0.7
		c-1.2,1.5-2.7,2.5-4.5,3c-0.4,0.1-0.9,0.1-1.3,0c-0.5-0.1-0.9,0-1.3,0.3c-2.8,1.5-5.6,2.7-8.6,3.6c-0.6,0.2-1.2,0.3-2,0.5
		c0.6,0.4,1.1,0.7,1.5,0.9c1,0.5,2,1,3,1.3c2.8,0.8,5.6,1.2,8.5,0.3c3.9-1.2,7.9-2.3,11.9-3.5c2-0.6,4-1.1,5.9-1.7
		c2.3-0.6,3.8,0.3,4.4,2.6c0.3,1.1,0.4,2.3,0.2,3.5c-0.4,2.3-1.4,4.3-2.8,6.1c-2.8,3.7-6.4,6.3-10.8,7.9c-5.8,2.1-12,0.2-15.8-4.5
		c-0.7-0.8-1.4-1.6-2-2.5c-0.1-0.2-0.3-0.3-0.5-0.4c0.1,1.3,0.3,2.4,0.4,3.6c0.3,4-0.2,7.8-1.7,11.5c-2.1,4.9-5.5,8.7-9.9,11.7
		c-0.7,0.5-1.2,1-1.6,1.7c-1.1,2.1-2.1,4.2-3.1,6.3c0,0.1,0,0.1,0,0.2c1.5,1.2,1.9,2.7,1.5,4.5c-0.3,1.4-0.8,2.8-2,3.8
		c-1.6,1.4-3.7,1-4.9-0.8c-0.5-0.9-0.8-1.8-0.7-2.8c0.2-2,1.3-3.5,2.9-4.6c0.5-0.3,0.8-0.7,1-1.2c0.4-1,0.8-2.1,1.2-3.1
		c0.2-0.4,0.3-0.8,0.6-1.4c-0.5,0.1-0.7,0.2-1,0.3c-1.5,0.4-3,0.7-4.6,0.7c-3.9,0-7.3-1.2-9.8-4.2c-1.1-1.2-2.1-2.5-2.8-4
		c-2.3-4.2-3.6-8.6-2.9-13.5c0.5-3.6,2.2-6.4,5.4-8.2c0.2-0.1,0.4-0.3,0.6-0.4c-0.6-1.3-1.3-2.6-1.8-3.9c-0.3-0.7-0.4-1.5-0.5-2.3
		c-0.1-1.1,0.5-2,1.4-2.3c1-0.3,1.9,0,2.5,0.8c0.6,0.7,1.1,1.5,1.5,2.3c0.5,1,0.9,2,1.4,3c0.1,0.2,0.2,0.4,0.4,0.6
		c0.2-0.2,0.4-0.3,0.5-0.5c1.3-0.9,2.5-1.9,3.9-2.8c0.9-0.6,2-0.8,3.2-0.7c1.8,0.2,2.8,1.8,2.1,3.5c-0.2,0.6-0.6,1.1-1,1.6
		c-1.3,1.4-2.8,2.6-4.5,3.6c-0.2,0.1-0.5,0.3-0.7,0.5c0.2,0.4,0.5,0.7,0.7,1c0.8,1.5,1.6,2.9,2.3,4.4c0.3,0.6,0.4,1.3,0.5,2
		c0.1,1.2-0.3,2.2-1.3,2.8c-1.1,0.7-2.2,0.5-3.2-0.1c-0.7-0.5-1.4-1.2-2-1.9c-1.5-2.1-2.4-4.4-3-6.9c-0.1-0.3-0.2-0.7-0.3-1
		c-2,1.4-3.1,3.2-3.3,5.6c-0.4,5.4,1.4,10,5,14c0.9,1,2,1.6,3.3,1.9c2.3,0.6,4.5,0.3,6.7-0.6c5.7-2.4,9.8-6.3,12.1-12
		c1.8-4.4,1.7-9,0.4-13.6c-2.5-9.1-9.7-14.9-19.1-15.4c-3.4-0.2-6.7,0.1-10.1,0.7c-3.9,0.8-7.7,2-11.1,4.1
		c-5.9,3.7-10.6,8.5-14.1,14.5c-3,5.2-5,10.8-6.2,16.7c-0.1,0.3-0.1,0.6-0.2,0.9c1.6-1.2,3.1-2.3,4.7-3.4c1.6-1.1,3.4-2,5.1-2.9
		c0.4-0.2,0.8-0.4,0.8-0.9c0.2-2.3,3-4.9,5.8-5.4c2.2-0.4,4.2,1.5,4,3.7c-0.3,2.9-3.1,5.4-6,5.6c-1.3,0.1-2.3-0.3-3.1-1.2
		c-2.4,1.5-4.7,3-7,4.6c-0.4,0.3-0.8,0.6-1.2,0.9c-1.4,1.1-2.6,2.4-3.5,4c-0.2,0.4-0.4,0.9-0.5,1.4c-0.2,2-0.4,4-0.3,6
		c0,3.4,0.2,6.9,0.3,10.3c0.3,6.9,1.5,13.6,3.1,20.3c0.1,0.3,0.2,0.5,0.3,0.9c0.2-2.4,0.3-4.7,0.5-6.9c0.6-4.9,2.4-9.4,5.5-13.3
		c0.6-0.7,1-1.5,1.4-2.4c2.2-5.4,6.1-8.9,11.8-10.3c2.2-0.5,4.4-0.4,6.6-0.3c3.2,0.2,6.4,0.5,9.5,0.8c1.3,0.1,2.2,1,2.3,2.3
		c0.1,0.8,0,1.6-0.1,2.3c-0.5,2.5-1.8,4.5-3.5,6.4c-2.4,2.7-5.4,4.3-9.1,4.6c-2.4,0.2-4.8-0.2-7.2-0.6c-2.2-0.3-4.4-0.7-6.6-1
		c-1.5-0.2-2.6,0.3-3.5,1.6c-2.6,4-3.8,8.4-4.2,13.1c-0.4,4.7,0.1,9.4,0.9,14.1c0.1,0.4,0.2,0.8,0.3,1.3c1.2-2.8,2.3-5.4,3.4-8
		c-0.2-0.3-0.3-0.5-0.5-0.8c-1.2-2.4-0.5-6,1.7-7.6c1.5-1.2,3.3-0.8,4.2,0.8c0.3,0.5,0.5,1,0.5,1.6c0.2,1.7-0.2,3.2-1,4.7
		c-0.5,1-1.3,1.7-2.4,2c-0.2,0.1-0.4,0.2-0.4,0.2c-0.8,2-1.6,3.9-2.4,5.8c-0.6,1.5-1.1,3.1-1.4,4.8c-0.1,0.7,0,1.2,0.3,1.8
		c1.1,1.9,2.1,3.9,3.2,5.8c3.7,6.6,7.3,13.3,9.9,20.5c0,0.1,0.1,0.1,0.3,0.2c0.2-1,0.3-1.9,0.5-2.9c1.1-5.2,2.9-10.2,6-14.5
		c3.8-5.3,8.3-9.9,13.6-13.7c0.3-0.2,0.5-0.4,0.9-0.7c-0.5-0.1-0.8-0.2-1-0.2c-3.1-0.5-5.8-1.7-8.3-3.6c-1.7-1.3-3.4-2.6-5.1-4
		c-0.6-0.5-1.2-1-2.1-0.9c-0.3,0-0.7-0.1-1-0.3c-1.9-0.8-3.1-2.3-3.9-4.2c-0.5-1.3,0.1-2.5,1.4-3c0.8-0.3,1.7-0.3,2.5-0.1
		c1.5,0.3,2.7,1.2,3.5,2.4c0.8,1.2,0.9,2.6,0.5,4c1.9,1.4,3.8,2.7,5.6,4.1c3.1,2.4,6.6,3.3,10.4,3.6c0.7,0.1,1.4-0.1,2-0.5
		c5.6-3.1,11.6-5,18.1-5.5c2.8-0.2,5.7-0.1,8.5,0.5c5.8,1.3,11,3.8,15.5,7.7c0.3,0.2,0.6,0.5,0.9,0.7c0-0.3,0-0.5-0.1-0.6
		c-1.8-3.6-3.4-7.2-4.6-11c-0.1-0.4-0.4-0.8-0.6-1.1c-2.1-2.6-4.7-4.5-7.6-6c-0.4-0.2-0.7-0.2-1.1-0.1c-1.9,0.7-3.9,1.2-5.9,1.9
		c-3,1.1-6,2.3-9,3.3c-3,1.1-6.1,1.6-9.3,1.4c-3.6-0.2-6.4-1.7-8.4-4.7c-1.3-2-2-4.3-2-6.7c0-2.8,1.1-4.6,4.4-4.7c0.1,0,0.1,0,0.2,0
		c2-0.2,4-0.3,5.9-0.5c4-0.4,8-0.3,11.8,0.7c2.5,0.7,4.9,1.6,7.3,2.5c3.9,1.4,7.4,3.5,10.7,5.8c0.3,0.2,0.6,0.4,0.9,0.6
		c-0.1-0.4-0.3-0.8-0.5-1.1c-1.9-2.7-4.1-5.1-6.6-7.2c-4.2-3.6-7.5-8-9.8-13c-0.2-0.4-0.5-0.7-0.9-0.9c-3.2-1.1-4.7-6.2-2.1-9.1
		c1.3-1.5,3.5-1.6,4.9-0.1c1.4,1.5,2.1,3.4,1.8,5.5c-0.2,1.4-0.8,2.5-1.8,3.4c0.8,1.4,1.5,2.7,2.3,4c1.9,3.3,4.5,5.9,7.3,8.4
		c1.8,1.6,3.5,3.3,5,5.3c0.1,0.2,0.3,0.3,0.6,0.6c0-2.2,0.1-4.3-0.4-6.3c-0.4-1.7-1.1-3.3-1.7-4.9c-1.5-4-2.6-8-2.3-12.3
		c0.3-4.9,1.7-9.3,4.8-13.2c1.6-2.1,3.5-4,5.5-5.8c3.5-3.2,7.1-6.3,10.6-9.4c0.3-0.2,0.5-0.5,0.8-0.6c1.5-1,2.9-1,4.2,0.2
		c0.8,0.7,1.5,1.6,2,2.5c2.2,4.1,2.8,8.5,1.7,13.1c-1.2,5.2-3.8,9.7-7.2,13.7c-2.3,2.6-4.8,5.1-7.2,7.7c-2.1,2.3-4.2,4.6-6.2,6.8
		c-0.4,0.4-0.6,0.9-0.7,1.5c-0.4,3.9-0.1,7.8,0.6,11.7c0,0.2,0.1,0.3,0.3,0.7c1.1-3.6,2.7-6.8,4.6-9.8c4.7-7.7,10.9-13.6,19.1-17.4
		c2-0.9,4-2,6-2.9c0.5-0.2,1-0.5,1.6-0.6c1.4-0.4,2.6,0,3.5,1.1c0.4,0.5,0.8,1.1,0.9,1.8c0.3,1.1,0.5,2.3,0.6,3.4
		c0.2,4.9-1.6,8.9-5.2,12.2c-2.3,2.1-5,3.5-8,4.6c-3.4,1.2-6.8,2.4-10.1,3.6c-3.2,1.2-6.2,2.7-8.8,4.9c-0.5,0.4-0.8,0.8-0.9,1.5
		c-0.5,2.1-0.5,4.3-0.3,6.5c0.1,1.3,0.5,2.6,1,3.8c1.6,3.6,3.5,7.1,5.5,10.5c2.2,3.8,4.3,7.6,5.8,11.7c0,0.1,0.1,0.2,0.3,0.4
		c1.3-5.5,3.7-10.5,6.2-15.4c-0.1-0.2-0.1-0.3-0.2-0.4c-1.7-3-0.4-7.3,1.6-9.1c1-0.9,2.2-1.4,3.5-0.7c1.4,0.7,2.5,1.6,2.6,3.4
		c0.1,1.7-0.4,3.2-1.3,4.7c-1.1,1.7-2.4,3-4.6,3.1c-0.8,1.7-1.6,3.3-2.4,5c-1.9,4.1-3.3,8.4-4.2,12.8c-0.1,0.7-0.1,1.3,0.1,2
		c2.2,6.9,2.8,14,2.3,21.1c-0.1,1-0.2,2-0.3,3.3c0.3-0.4,0.5-0.6,0.6-0.9c1.5-2.7,3.1-5.3,4.6-8c5.7-10.5,10.5-21.3,14.1-32.7
		c2.4-7.5,4.1-15.2,5.2-23c0.6-4,1-8,1.3-12c0.3-5.7-0.2-11.3-1.2-17c-2.5-13.6-8-25.9-16.1-37.1c-6-8.3-13.8-14.5-23.1-18.7
		c-5-2.3-10.3-3.6-15.8-4.2c-4.1-0.5-8.2-0.7-12.3-0.2c-7,0.9-13.9,2.3-20.4,4.9C266.2,77.4,263.4,78.6,260.8,80.1z M122.1,155.6
		c0-0.2,0-0.3,0-0.4c-0.3-2.7,1.6-4.9,4.3-4.9c2.2,0,4.1,0.9,5.9,2.1c0.1,0,0.1,0.1,0.2,0.1c1,1,1.4,2.1,1.1,3.5
		c-0.4,1.8-1.7,2.7-3.3,3.2c-1.8,0.5-3.5,0.2-5.1-0.6c-0.6-0.3-1.2-0.4-1.8-0.4c-2.7-0.1-5.5-0.2-8.2-0.5c-3.2-0.3-6.3-1.1-9.1-2.7
		c-0.2-0.1-0.4-0.1-0.7-0.3c0.3,0.5,0.4,0.7,0.6,1c6,9.8,13.6,18,22.9,24.6c6.4,4.5,13.3,7.9,20.9,9.7c1.1,0.2,2.2,0.5,3.2,0.5
		c2.6-0.1,5.1-0.8,7.3-2.4c2.4-1.8,4.8-3.7,7.2-5.5c-0.1-0.3-0.1-0.6-0.2-0.8c-0.5-2.7,1.3-5.7,3.9-6.6c1.9-0.6,3.6,0.4,3.9,2.4
		c0.5,3.1-1.9,5.8-4.1,6.5c-0.3,0.1-0.7,0.2-1,0.1c-0.9-0.3-1.4,0.2-1.9,0.7c-2.4,2.1-4.7,4.3-7.5,6c-0.1,0-0.1,0.1-0.3,0.3
		c0.7,0,1.2,0,1.8,0c3.6-0.2,7-1.1,10.3-2.4c2.8-1.1,4.9-3,6.4-5.5c2.4-4.1,3.7-8.6,3.8-13.4c0.1-6.9-2-13.2-6-18.9
		c-1.7-2.4-3.8-4.5-6.4-6c-2-1.2-4.3-1.9-6.6-1.6c-3.2,0.3-5.9,1.7-8.2,4c-1.2,1.2-2,2.7-2.5,4.3c-0.5,1.6-0.4,3.3,0,5.1
		c1.4-2,3.1-3.5,5.1-4.6c0.6-0.4,1.4-0.6,2.1-0.8c0.9-0.2,1.8,0,2.4,0.8c0.6,0.8,0.7,1.8,0.2,2.6c-0.4,0.8-1,1.5-1.6,2
		c-1.2,1-2.5,1.8-3.8,2.7c-0.3,0.2-0.6,0.4-0.9,0.6c0.3,0.3,0.6,0.5,0.9,0.8c1.3,1.1,2.3,2.3,3.1,3.8c0.3,0.6,0.6,1.3,0.8,2
		c0.6,2.5-1.2,4.6-3.8,4.5c-1.2-0.1-2.2-0.6-3.1-1.3c-1-0.8-1.7-1.9-2.4-3c-0.1-0.2-0.3-0.5-0.5-0.8c-0.3,0.4-0.5,0.6-0.7,0.9
		c-0.9,0.9-1.7,1.8-2.6,2.7c-0.4,0.4-1,0.7-1.5,0.9c-1.5,0.5-3-0.3-3.5-1.9c-0.3-0.9-0.1-1.7,0.2-2.5c0.5-1,1.1-2,1.6-3
		c0.4-0.7,0.9-1.4,1.4-2.2c-0.5-0.2-0.8-0.4-1.2-0.6c-1.5-0.7-2.8-1.6-3.9-2.7c-0.4-0.4-0.8-0.9-1-1.5c-0.7-1.5,0.1-3.1,1.6-3.7
		c0.8-0.3,1.5-0.4,2.3-0.1c1.1,0.4,2.3,0.8,3.4,1.3c0.3,0.1,0.6,0.3,1,0.5c0-0.2,0.1-0.4,0.1-0.5c0-4.1,1.6-7.4,4.5-10.2
		c1.9-1.9,4.2-3.1,6.7-4c2.9-1,5.9-1.1,8.9-0.3c4,1,7.1,3.3,9.8,6.3c3,3.2,5,6.9,6.6,11c2.2,5.9,2.9,12,1.8,18.2
		c-0.2,1-0.4,2.1-0.7,3.3c0.5-0.3,0.7-0.5,1-0.7c2.1-1.3,4.1-2.6,6.2-3.8c4.2-2.2,8.8-3.2,13.6-3c7,0.3,13.5,2.5,19.2,6.7
		c0.2,0.2,0.4,0.3,0.7,0.4c0-0.2,0.1-0.2,0-0.3c-1.1-2.8-2.1-5.6-3.2-8.3c-0.1-0.3-0.3-0.6-0.5-0.8c-2.4-2.7-5.2-4.7-8.7-5.7
		c-2.9-0.8-5.8-1.7-8.7-2.6c-3.2-1-6.3-2.3-9.1-4c-4.8-2.9-7.7-7.1-8.9-12.6c-0.4-1.9-0.5-3.7-0.1-5.6c0.4-1.8,1.4-2.6,3.2-2.7
		c2.4-0.1,4.9,0,7.3,0.1c2,0.1,4,0.3,5.9,0.7c3.8,0.8,6.7,3,9.1,5.9c2.1,2.5,3.6,5.3,5.1,8.1c0.2,0.4,0.4,0.8,0.6,1.2
		c-0.1-1.9-0.4-3.7-0.9-5.5c-1.1-4.1-3.3-7.7-5.8-11.1c-1.8-2.4-3.7-4.8-5.6-7.3c-0.3-0.4-0.5-0.5-1-0.4c-1,0.1-1.9,0-2.6-0.7
		c-1.8-1.6-3.1-3.6-3-6.1c0-2.5,2.3-4,4.6-3c2.8,1.2,4.5,4.6,3.7,7.2c-0.2,0.6,0,1,0.3,1.4c1.5,1.9,2.9,3.8,4.4,5.6
		c2.4,3,4.6,6.2,6.1,9.7c0,0.1,0.2,0.2,0.4,0.4c-0.1-5.7-0.3-11.3,0.5-16.8c0.8-5.5,2.1-10.8,4.1-16c-0.3,0.2-0.5,0.5-0.7,0.8
		c-1.3,1.8-2.5,3.6-3.7,5.4c-0.5,0.7-0.9,1.4-1.4,2.1c-0.9,1.3-2.4,1.4-3.6,0.4c-0.3-0.3-0.6-0.7-0.9-1c-2.5-3.4-5-6.7-7.5-10.1
		c-3.3-4.4-6.8-8.7-10.6-12.6c-6.7-6.9-14.6-12-23.7-15.1c-5.6-1.9-11.3-3-17.2-3.6c-7-0.7-14-1.2-21-0.6c-4.5,0.4-9,1.1-13.4,2.4
		c-7.4,2.1-13.7,6.3-19.6,11.1c-0.2,0.2-0.4,0.4-0.5,0.7c-1.2,2.9-2.5,5.8-3.1,8.9c-0.3,1.9-0.7,3.8-0.2,5.7c0.6,2.6,2,4.5,4.6,5.2
		c0.9,0.3,2,0.3,2.9,0.2c2.9-0.4,5.7-0.9,8.6-1.4c0.4-1.3,1.2-2.3,2.5-2.8c0.9-0.4,1.8-0.8,2.7-0.9c1.4-0.3,2.9-0.3,4.2,0.5
		c1.8,1.1,2.2,3.2,0.8,4.8c-2.4,2.8-6.9,3.1-9.3,0.8c-0.1-0.1-0.2-0.2-0.3-0.2c-0.3,0.1-0.6,0.2-1,0.3c-2.6,0.6-5.2,1.3-7.9,1.7
		c-3.9,0.6-7.1-0.7-9.3-4c-0.1-0.1-0.2-0.2-0.3-0.3c0,0.2,0,0.3,0,0.4c0.5,3,1.3,6,2.4,8.8c2.9,7.7,8.3,12.7,16.1,15.2
		c4.1,1.3,8.1,1.3,12-0.5c2.9-1.3,5.5-3.1,7.8-5.3c0.7-0.7,1.2-1.5,1.1-2.5c-0.3-2.1-0.5-4.2-0.8-6.2c-0.6-3.6-0.5-7.2,0.7-10.7
		c1.2-3.5,2.5-6.9,3.8-10.3c0.1-0.3,0.3-0.6,0.4-0.8c0.8-1.2,2-1.6,3.3-1.1c0.6,0.2,1.2,0.5,1.7,0.9c3.5,2.3,5.6,5.7,6.7,9.7
		c0.6,2.3,0.6,4.7,0,7c-0.7,2.8-2.2,5.1-4,7.3c-0.2,0.3-0.4,0.6-0.7,0.8c0.1,0,0.1,0.1,0.2,0.1c0.6-0.5,1.2-0.9,1.7-1.4
		c1.1-1.1,2.2-2.3,3.2-3.6c1.9-2.5,3.3-5.2,4.4-8.1c1.9-4.8,3.8-9.7,5.7-14.6c-0.8-1-0.9-2.4-0.8-3.8c0.2-2.3,1.4-4,3.3-5.2
		c1.7-1,3.4-0.2,4,1.6c0.1,0.4,0.3,0.9,0.4,1.3c0.1,0.7,0.2,1.4,0.1,2.1c-0.5,2.6-1.8,4.6-4.8,5.1c-1.1,2.8-2.1,5.6-3.2,8.4
		c-1.5,4.1-3,8.3-5.2,12.1c0,0,0,0.1,0.1,0.2c2.1-2,4.5-3.6,7-5c3.6-2,7.3-3.7,11.4-4.3c5.3-0.8,10.1,0.3,14.2,3.7
		c2.7,2.2,4.6,5,5.7,8.3c0.8,2.3,1.5,4.7,1.3,7.2c-0.3,3.4-2.1,4.2-4.6,4c-2.1-0.2-4.2-0.2-6.3-0.3c-4.6-0.2-9.2-0.3-13.8-1.1
		c-5.5-0.9-10.7-2.9-15.2-6.3c-0.4-0.3-0.8-0.4-1.3-0.1c-1.1,0.5-2.2,1-3.2,1.6c-5,2.8-9.9,5.6-14.9,8.3c-1.6,0.9-3.2,1.6-4.9,2.4
		c-0.5,0.2-1.1,0.4-1.7,0.6c2.6,0.8,4.8,2.4,7.1,3.6c1-0.8,2-0.9,3.2-0.6c0.2,0.1,0.5,0.1,0.7,0.1c2,0.5,3.5,1.7,4.3,3.6
		c1,2.4-0.8,4.7-3.4,4.5c-2.5-0.2-5-2.3-5.6-4.7c-0.1-0.4-0.3-0.7-0.7-0.9c-1.4-0.6-2.7-1.3-4-2c-1.5-0.8-3.1-1.2-4.8-1.2
		c-1.1,0-2.3,0.1-3.4,0c-2.3-0.1-4.6-0.2-6.9-0.6c-6.4-1.2-11.6-4.5-15.8-9.4c-2.5-3-4.1-6.5-5.2-10.2c-0.1-0.4-0.2-0.7-0.3-1.1
		c-0.2,0.2-0.2,0.3-0.2,0.5c0.2,2.8,0.2,5.7,0.6,8.5c1.3,9.1,4,17.8,8.1,26c0.3,0.5,0.7,1,1.1,1.4c2,1.7,4.4,2.8,6.8,3.6
		c3.2,1,6.5,1.3,9.9,1.5C120.8,155.6,121.4,155.6,122.1,155.6z M224.5,352.5c0.1,0.1,0.1,0.1,0.2,0.2c0.6-0.5,1.1-0.9,1.7-1.5
		c9.6-9.4,18.8-19,28-28.8c12.3-13.2,24.1-26.8,36-40.4c11.4-13.2,22-27,32-41.3c0.8-1.1,1.5-2.3,1.7-3.6c0.1-0.8,0.3-1.7,0.4-2.5
		c0.2-1.6,0-3.1-0.9-4.5c-1.1-1.9-2.6-3.4-4.3-4.9c-1.1,0.5-2.3,0.6-3.4,0c-2.3-1.2-3.8-3.1-4.5-5.5c-0.6-2.5,1.5-4.7,4.1-4.3
		c3.1,0.6,5.3,3.2,5.7,6c0.1,0.7-0.1,1.5-0.2,2.3c2.5,2.2,4.9,4.5,5.8,8c0.2-0.4,0.3-0.7,0.4-1.1c1.6-6.3,1.7-12.7,0.8-19.1
		c-1.1-8.4-4.4-15.8-9.4-22.6c-3.1-4.2-6.7-7.7-11.2-10.3c-1.6-0.9-1.9-0.9-3.3,0.2c-0.2,0.1-0.4,0.3-0.5,0.5
		c-1.1,1.3-2.1,2.6-2.7,4.2c-0.9,2.4-0.9,4.7,0.2,7c0.6,1.4,1.5,2.6,2.6,3.8c2.3,2.5,5.1,4.4,7.8,6.4c0.2,0.1,0.6,0.2,0.8,0.1
		c2-0.8,5.4,1.1,6.3,3.6c0.7,2.1-0.9,3.9-3.1,3.6c-0.2,0-0.5-0.1-0.7-0.2c-2.1-0.9-3.4-2.4-3.8-4.6c-0.1-0.6-0.3-0.9-0.7-1.2
		c-1.7-1.2-3.4-2.4-5-3.7c-1.2-1-2.3-2-3.4-3.1c-2.3-2.5-3.7-5.4-3.6-8.9c0-0.1-0.1-0.1-0.1-0.2c-0.1,0.1-0.2,0.1-0.2,0.2
		c-1.9,3.2-3,6.6-3.8,10.2c-0.1,0.4,0,0.6,0.3,0.8c2,2.1,1.7,5.9-0.6,7.9c-1.6,1.4-3.7,1.1-4.8-0.8c-1.4-2.6-0.6-5.8,1.9-7.4
		c0.7-0.4,0.9-0.8,1-1.5c0.9-5.1,2.9-9.8,6-13.9c1.3-1.8,2.9-3.4,4.8-4.6c0.2-0.1,0.4-0.3,0.7-0.5c-2.5-1-4.9-1.7-7.4-1.9
		c-6.7-0.4-13,1.1-19,4c-0.4,0.2-0.9,0.5-1.2,0.8c-1.7,1.6-3.3,3.4-4.5,5.4c-2.6,4.4-3.8,9-2.6,14.1c0.5,2.1,1.1,4.2,1.9,6.3
		c0.2,0,0.4,0,0.6,0c1.3-0.1,2.3,0.4,3.1,1.3c1.4,1.7,1.7,4.9-0.3,6.9c-1.7,1.7-3.8,1.5-5.1-0.6c-1.3-2.2-1.4-4.4,0.1-6.4
		c-0.5-1.5-1.1-3-1.5-4.5c-0.7-2.6-1.3-5.3-1-8.1c0.3-3.8,1.7-7.3,3.8-10.5c0.2-0.3,0.3-0.5,0.6-0.9c-0.3,0.1-0.3,0.1-0.4,0.1
		c-0.3,0.2-0.5,0.4-0.8,0.6c-4.1,3.1-7.7,6.7-10.9,10.8c-2.9,3.7-4.7,7.8-5.8,12.3c-0.7,2.7-1,5.4-1.2,8.2c-0.3,3.2-0.2,6.5,0.7,9.6
		c2,7.9,7.3,12.7,14.8,15.3c2.9,1,5.8,0.9,8.7-0.1c3.6-1.2,6.9-3,9.7-5.6c2.3-2.1,3.9-4.6,4.9-7.5c0.1-0.2,0.1-0.4,0.2-0.8
		c-0.8,0.2-1.5,0.3-2.2,0.4c-1.2,0.2-2.5,0.4-3.7,0.1c-1.3-0.3-2.3-0.9-2.5-2.3c-0.3-1.3,0.4-2.2,1.3-2.9c0.9-0.7,1.9-1,3-1.2
		c0.8-0.1,1.5-0.2,2.4-0.2c0-0.2-0.1-0.4-0.1-0.6c-0.3-1.1-0.6-2.1-0.9-3.2c-0.2-1-0.4-2.1-0.1-3.2c0.2-0.9,0.7-1.6,1.7-1.9
		c1-0.3,1.9,0,2.6,0.8c0.4,0.5,0.7,1,0.9,1.5c0.5,1.2,0.8,2.5,1.2,3.7c0.2,0.7,0.4,1.3,0.6,2.2c0.4-0.3,0.7-0.6,1-0.8
		c1.3-1.1,2.7-2.1,4.3-2.7c0.7-0.3,1.4-0.5,2.2-0.5c1.8,0,3,1.8,2.4,3.5c-0.2,0.6-0.6,1.1-1,1.6c-1.1,1.2-2.5,2.2-4.1,2.9
		c-0.3,0.1-0.6,0.3-1,0.5c1.8,1.3,3.1,2.9,4.3,4.6c0.3,0.5,0.6,0.9,0.8,1.5c0.5,1.2,0.4,2.3-0.6,3.3c-0.9,0.9-2.1,1.1-3.2,0.6
		c-0.8-0.3-1.5-0.8-2.1-1.4c-1.1-1.2-2.2-2.4-3.2-3.7c-0.2-0.2-0.3-0.4-0.6-0.6c-0.2,0.4-0.3,0.7-0.4,1c-1,2.5-2.3,4.8-4.1,6.8
		c-3.6,4-7.9,6.8-13,8.4c-3.6,1.2-7.2,1.3-10.9,0.2c-3.6-1.1-6.8-2.9-9.7-5.2c-0.3-0.3-0.6-0.5-1.1-0.9c0,0.3,0,0.5,0.1,0.6
		c1.2,3.6,2.6,7.2,4.6,10.5c1.3,2.3,3,4.3,4.5,6.5c1.7,2.5,3.9,4.3,6.2,6c0.3,0.2,0.6,0.3,1,0.3c1.7,0,3.3-0.1,5-0.1
		c2.1-0.1,4.2-0.2,6.3,0.1c2,0.4,4,0.9,5.8,2c1.5,0.9,2.6,2.3,2.9,4c0.4,2,0.2,3.9-0.6,5.7c-0.7,1.5-1.6,2-3.3,1.6
		c-1.3-0.3-2.6-0.6-3.9-0.8c-3.7-0.7-6.7-2.4-9.1-5.3c-0.4-0.5-0.9-0.9-1.2-1.5c-1.1-1.7-3-2.3-4.6-3.6c0.1,0.4,0.1,0.5,0.1,0.6
		c0.7,2.7,1.3,5.5,1.1,8.3c0,0.3,0.1,0.6,0.2,0.9c0.5,1.2,0.9,2.4,1.4,3.6c2,5.5,1.4,10.8-1.6,15.8c-1.5,2.4-3.6,4-6.4,4.9
		c-1.4,0.4-2.8,0.4-4.2-0.3c-1.4-0.7-2-1.7-1.7-3.3c0.3-1.6,0.7-3.1,1-4.7c1-4.4,2.6-8.5,5.3-12.1c1-1.3,1.7-2.8,2.6-4.2
		c0.4-0.7,0.5-1.4,0.5-2.1c-0.2-3.4-1-6.7-2.3-9.8c-0.4-0.8-1-1.6-1.5-2.3c-1.4-1.7-2.9-3.2-4.3-4.9c-2.4-3.1-4-6.6-5.3-10.2
		c-0.1-0.3-0.3-0.6-0.4-1c-0.1,0.6-0.1,1.2,0,1.8c0.2,5.3,0.3,10.6,0.1,16c-0.2,5.8-0.7,11.6-1.4,17.4c-0.7,6.2-1.7,12.4-2.9,18.6
		c-1.3,6.6-2.7,13.2-4.7,19.7c-3.9,13-10,24.8-18.9,35.1C225,351.8,224.7,352.1,224.5,352.5z"/>
</g>
</svg>
